<?xml version="1.0" standalone="no"?>
<!DOCTYPE svg PUBLIC "-//W3C//DTD SVG 20010904//EN"
 "http://www.w3.org/TR/2001/REC-SVG-20010904/DTD/svg10.dtd">
<svg version="1.0" xmlns="http://www.w3.org/2000/svg"
 width="700.000000pt" height="700.000000pt" viewBox="0 0 700.000000 700.000000"
 preserveAspectRatio="xMidYMid meet">
<metadata>
Created by potrace 1.11, written by Peter Selinger 2001-2013
</metadata>
<g transform="translate(0.000000,700.000000) scale(0.100000,-0.100000)"
fill="#000000" stroke="none">
<path d="M3330 6971 c0 -27 9 -34 98 -84 158 -88 170 -95 282 -163 148 -88
190 -105 262 -105 124 -1 212 83 261 249 16 52 16 52 -6 53 -12 1 -31 3 -42 4
-11 1 -58 5 -105 9 -47 4 -103 9 -125 11 -22 2 -69 7 -105 10 -36 3 -90 8
-120 10 -30 3 -84 8 -120 11 -126 10 -171 14 -225 19 l-55 6 0 -30z"/>
<path d="M2590 6856 c-330 -88 -691 -248 -943 -418 l-58 -39 40 -72 c21 -40
80 -133 130 -207 50 -74 156 -232 236 -352 80 -119 160 -228 177 -244 90 -75
169 -64 308 43 91 70 300 210 395 265 44 26 170 90 280 143 595 288 624 303
631 330 9 35 -3 46 -119 110 -97 54 -530 270 -667 333 -36 16 -113 53 -172 81
-59 28 -118 51 -130 50 -13 0 -61 -10 -108 -23z"/>
<path d="M4528 6774 c-30 -16 -52 -75 -63 -171 -6 -51 -6 -52 27 -69 19 -10
54 -17 83 -17 43 1 227 34 345 63 19 4 47 11 63 14 19 5 27 12 27 29 0 19 -15
28 -103 61 -300 114 -325 120 -379 90z"/>
<path d="M5327 6384 c-1 -1 -27 -5 -57 -8 -62 -7 -232 -33 -270 -41 -14 -3
-36 -7 -50 -10 -14 -3 -38 -8 -55 -11 -70 -13 -279 -66 -310 -78 -41 -18 -59
-49 -52 -92 7 -41 -12 -14 327 -469 344 -461 547 -715 603 -753 66 -46 134
-67 207 -66 57 1 82 9 215 68 270 121 615 298 615 316 0 38 -112 214 -245 385
-142 182 -317 368 -480 509 -44 38 -91 78 -105 90 -145 126 -222 168 -296 165
-25 -2 -45 -4 -47 -5z"/>
<path d="M1303 6195 c-28 -12 -362 -335 -444 -430 -65 -76 -168 -221 -356
-505 -104 -157 -192 -290 -196 -296 -7 -11 645 -348 734 -379 37 -13 109 -26
159 -29 45 -2 151 18 201 39 97 39 158 87 244 190 77 92 88 104 123 143 82 90
134 246 128 386 -7 156 -13 168 -281 557 -77 112 -156 227 -175 255 -50 76
-82 92 -137 69z"/>
<path d="M3832 6010 c-46 -16 -557 -273 -747 -375 -120 -65 -367 -206 -423
-241 -81 -52 -151 -129 -185 -203 -26 -58 -30 -77 -30 -156 0 -103 10 -145 90
-360 76 -206 123 -279 229 -361 144 -109 269 -135 539 -110 33 3 97 8 142 11
162 11 252 50 297 127 40 69 48 113 61 313 3 55 8 120 10 145 2 25 7 81 10
125 4 44 8 96 10 115 2 19 7 64 10 100 3 36 8 79 9 95 2 17 6 59 10 95 4 36 9
76 11 90 2 14 7 54 11 90 22 215 26 255 30 275 10 47 16 176 10 199 -10 40
-34 47 -94 26z"/>
<path d="M4223 5913 c-36 -40 -53 -94 -68 -218 -3 -22 -7 -51 -10 -65 -5 -24
-11 -68 -21 -145 -3 -22 -11 -83 -19 -135 -14 -94 -19 -127 -30 -205 -3 -22
-7 -53 -10 -70 -3 -16 -7 -46 -9 -65 -12 -87 -17 -117 -22 -145 -11 -62 -11
-90 -1 -97 6 -4 12 -50 14 -105 7 -206 63 -297 190 -307 86 -7 197 20 626 156
188 59 235 78 268 109 91 87 81 148 -58 342 -207 289 -625 839 -701 921 -28
29 -79 56 -107 56 -9 0 -27 -12 -42 -27z"/>
<path d="M6314 4836 c-324 -165 -430 -222 -471 -252 -76 -57 -127 -176 -119
-275 10 -102 147 -544 188 -604 12 -18 40 -45 61 -59 65 -42 119 -43 292 -10
11 2 34 7 50 9 17 3 86 16 155 30 69 13 136 26 150 29 14 2 36 7 50 10 14 3
39 8 55 11 17 3 66 13 110 21 44 8 96 18 115 21 42 7 51 19 45 58 -2 17 -7 62
-10 100 -3 39 -7 80 -9 90 -2 11 -7 40 -10 65 -28 202 -104 477 -195 703 -50
125 -67 153 -101 167 -69 29 -84 24 -356 -114z"/>
<path d="M2095 4878 c-41 -23 -281 -285 -345 -377 -12 -18 -24 -51 -26 -72 -2
-32 3 -44 26 -68 16 -16 46 -32 67 -36 21 -5 43 -9 48 -11 6 -1 57 -11 115
-23 58 -11 119 -23 135 -27 63 -13 190 -13 222 1 50 21 51 50 8 184 -21 64
-42 123 -47 131 -4 8 -14 33 -22 55 -82 239 -114 281 -181 243z"/>
<path d="M179 4683 c-12 -215 17 -356 121 -588 10 -22 32 -74 50 -115 18 -41
52 -117 76 -168 24 -52 44 -96 44 -98 0 -18 179 -369 220 -428 l52 -78 59 122
c32 67 59 123 59 125 0 1 29 63 64 136 35 74 73 157 86 184 12 28 33 75 47
105 89 196 103 236 93 269 -11 40 -42 90 -72 118 -30 27 -265 145 -588 295
-47 22 -98 46 -115 53 -16 7 -66 30 -109 49 -43 20 -80 36 -82 36 -2 0 -4 -8
-5 -17z"/>
<path d="M4990 4274 c-96 -30 -272 -82 -390 -115 -238 -68 -300 -93 -348 -141
-54 -52 -67 -84 -67 -168 1 -76 17 -128 91 -295 12 -27 32 -72 44 -100 12 -27
58 -123 102 -213 90 -182 129 -227 220 -258 88 -29 149 -16 274 55 58 34 108
61 111 61 2 0 28 15 56 33 29 18 95 60 147 92 158 97 218 144 273 210 56 68
137 197 137 218 0 17 -68 227 -80 249 -6 10 -10 24 -10 31 0 8 -17 56 -38 108
-21 52 -42 106 -45 120 -12 48 -92 126 -153 148 -82 31 -129 26 -324 -35z"/>
<path d="M1689 4066 c-2 -2 -20 -6 -39 -9 -58 -7 -172 -57 -230 -101 -56 -42
-78 -77 -149 -237 -13 -30 -37 -83 -54 -119 -93 -207 -147 -330 -161 -372 -28
-85 -25 -148 19 -333 14 -55 26 -136 29 -180 l5 -79 472 -471 c259 -259 494
-487 521 -508 132 -97 230 -41 297 167 31 97 86 307 96 366 3 19 10 53 15 75
9 42 15 77 26 160 3 28 8 59 10 69 13 68 19 232 19 511 0 591 -28 714 -198
872 -80 73 -174 117 -297 138 -52 9 -139 25 -194 35 -90 18 -177 26 -187 16z"/>
<path d="M26 3913 c-17 -145 -21 -223 -20 -428 0 -121 4 -249 8 -285 4 -36 9
-85 12 -110 3 -25 9 -67 14 -95 6 -27 12 -68 16 -90 3 -22 17 -89 32 -150 14
-60 27 -112 27 -115 48 -200 193 -555 307 -750 l38 -65 1 55 c1 90 6 122 44
270 49 194 63 274 63 367 0 98 -12 151 -54 242 -24 52 -25 63 -19 156 3 55 8
108 11 118 5 16 -86 206 -211 442 -23 44 -70 134 -105 200 -78 149 -152 289
-155 293 -1 1 -5 -23 -9 -55z"/>
<path d="M3407 3964 c-2 -2 -244 -17 -415 -24 -90 -5 -159 -41 -189 -100 -23
-46 -30 -93 -20 -145 3 -16 9 -59 12 -95 4 -36 9 -74 11 -84 17 -89 24 -600
10 -776 -14 -175 -40 -386 -62 -495 -2 -11 -7 -33 -10 -50 -25 -139 -81 -366
-116 -469 -42 -126 -34 -237 25 -348 49 -95 106 -139 305 -235 271 -131 360
-155 435 -117 71 36 104 90 197 329 147 376 397 789 642 1059 35 38 83 129 98
186 19 67 21 170 5 236 -7 33 -61 156 -118 274 -110 226 -217 456 -217 468 0
4 -6 19 -14 33 -7 15 -21 50 -31 78 -23 69 -93 160 -158 205 -81 56 -154 75
-281 73 -59 0 -108 -2 -109 -3z"/>
<path d="M6860 3505 c-41 -8 -88 -16 -105 -19 -16 -2 -41 -7 -55 -10 -14 -3
-47 -10 -75 -16 -27 -6 -59 -12 -70 -14 -76 -16 -304 -79 -331 -92 -42 -20
-106 -89 -134 -145 -46 -90 -52 -131 -45 -303 3 -89 8 -174 10 -191 2 -16 7
-68 10 -115 4 -47 8 -92 10 -100 2 -8 6 -37 9 -65 3 -27 10 -88 16 -135 5 -47
12 -112 15 -145 12 -123 25 -162 92 -272 36 -60 78 -130 94 -158 75 -136 140
-138 216 -7 227 386 392 829 439 1179 3 26 8 51 10 54 2 3 6 34 9 70 4 35 9
75 11 89 2 14 7 112 10 218 l6 192 -33 -1 c-19 0 -68 -7 -109 -14z"/>
<path d="M5575 3132 c-36 -8 -314 -173 -531 -315 -105 -69 -134 -104 -134
-163 0 -63 35 -105 191 -229 84 -66 157 -125 163 -130 28 -25 409 -307 452
-335 75 -47 116 -38 143 33 10 27 15 233 7 287 -10 62 -16 109 -21 160 -3 30
-8 69 -10 85 -5 37 -13 104 -20 170 -3 28 -8 61 -10 75 -6 32 -12 73 -20 135
-4 28 -8 65 -11 83 -12 98 -105 165 -199 144z"/>
<path d="M816 2521 c-2 -3 -7 -46 -11 -95 -4 -50 -8 -97 -10 -105 -1 -9 -6
-52 -10 -96 -4 -44 -8 -91 -10 -105 -1 -14 -6 -59 -9 -100 -4 -41 -9 -91 -11
-110 -2 -19 -7 -66 -10 -105 -4 -38 -8 -86 -10 -105 -2 -19 -6 -71 -10 -115
-4 -44 -8 -96 -10 -115 -2 -19 2 -52 8 -73 24 -85 323 -414 534 -588 33 -27
169 -133 194 -151 46 -32 161 -108 165 -108 2 0 27 -15 56 -34 100 -63 90 -63
137 10 107 166 239 419 271 517 25 78 -7 213 -75 317 -51 77 -255 279 -565
560 -166 151 -200 182 -258 240 -67 66 -118 122 -187 205 -28 33 -56 66 -63
73 -7 8 -24 29 -37 47 -23 30 -70 51 -79 36z"/>
<path d="M4562 2383 c-76 -37 -331 -368 -487 -633 -127 -216 -272 -532 -307
-671 -39 -154 28 -246 202 -278 58 -10 300 -48 360 -56 88 -12 117 -16 139
-20 13 -2 49 -7 80 -10 31 -4 63 -8 71 -10 8 -2 38 -7 65 -10 47 -5 112 -14
145 -20 8 -1 42 -6 75 -10 33 -4 69 -9 80 -10 177 -24 179 -24 183 3 3 18 8
21 24 16 26 -8 224 -8 266 0 47 9 153 59 209 98 27 18 76 62 111 98 51 53 66
76 82 128 34 109 28 226 -17 365 -24 72 -91 202 -124 241 -68 79 -122 127
-234 206 -71 50 -141 100 -155 110 -165 123 -378 283 -390 293 -8 6 -50 38
-92 70 -42 31 -80 62 -83 67 -13 22 -86 50 -127 50 -24 0 -58 -8 -76 -17z"/>
<path d="M2485 1039 c-58 -11 -90 -25 -114 -50 -22 -24 -112 -172 -166 -272
-128 -241 -172 -325 -182 -349 -12 -26 -11 -26 90 -77 188 -92 512 -200 681
-225 21 -4 41 -8 45 -10 4 -3 29 -7 56 -11 28 -4 61 -9 75 -11 55 -10 253 -13
269 -5 11 6 22 33 29 73 7 35 15 74 18 88 2 14 7 72 10 130 7 121 -7 195 -57
294 -66 131 -151 203 -354 304 -97 48 -260 110 -312 118 -21 3 -40 7 -43 8 -3
2 -23 -1 -45 -5z"/>
<path d="M3750 532 c-56 -21 -108 -53 -136 -84 -40 -44 -83 -210 -87 -338 l-2
-75 35 -18 c31 -16 53 -17 175 -12 77 3 149 8 160 10 11 2 45 7 76 10 31 3 67
8 80 10 13 3 39 7 59 10 20 3 45 7 55 9 298 58 569 149 830 278 97 48 109 58
70 59 -17 0 -39 2 -50 5 -11 2 -40 6 -65 9 -25 3 -52 8 -60 10 -8 2 -42 7 -75
10 -33 4 -67 8 -75 10 -8 3 -64 11 -125 20 -60 9 -126 18 -145 21 -142 20
-179 25 -210 29 -19 2 -51 6 -70 9 -19 2 -62 7 -95 11 -33 4 -71 8 -85 11 -14
2 -68 6 -120 8 -73 4 -106 1 -140 -12z"/>
</g>
</svg>
